<svg xmlns="http://www.w3.org/2000/svg" width="720" height="1520" viewBox="0 0 720 1520">
  <rect width="720" height="1520" rx="36" fill="#0d1117"/>
  
    <g font-family="-apple-system, BlinkMacSystemFont, 'Segoe UI', Roboto, sans-serif">
      <text x="56" y="52" fill="#e6edf3" font-size="24" font-weight="600" letter-spacing="0.5">09:41</text>
      <!-- Dynamic island / pill camera -->
      <rect x="290" y="24" width="140" height="34" rx="17" fill="#000000"/>
      <circle cx="395" cy="41" r="5" fill="#161b22"/>
      <!-- Right status icons -->
      <path d="M570 38 L582 52 L594 38 Z" fill="#8b949e"/>
      <text x="610" y="52" fill="#8b949e" font-size="20" font-weight="700">5G</text>
      <rect x="650" y="34" width="30" height="18" rx="4" fill="none" stroke="#e6edf3" stroke-width="2"/>
      <rect x="652" y="36" width="22" height="14" rx="2" fill="#3fb950"/>
      <rect x="681" y="40" width="2.5" height="6" rx="1" fill="#e6edf3"/>
    </g>
  

  <!-- Top App Bar -->
  <g transform="translate(36, 92)">
    <text x="0" y="32" fill="#ffffff" font-size="30" font-weight="800" font-family="sans-serif">Settings &amp; Engine</text>
    <rect x="496" y="6" width="152" height="34" rx="17" fill="#21262d" stroke="#30363d" stroke-width="1"/>
    <text x="572" y="28" fill="#8b949e" font-size="15" font-weight="700" text-anchor="middle" font-family="sans-serif">TrueStream v0.0.1</text>
  </g>

  <g transform="translate(36, 168)">
    <!-- CATEGORY 1: JAVASCRIPT & PYTHON RUNTIMES -->
    <text x="0" y="20" fill="#58a6ff" font-size="16" font-weight="800" letter-spacing="1" font-family="sans-serif">ENGINE &amp; RUNTIME ARCHITECTURE</text>

    <!-- Card 1: Deno -->
    <g transform="translate(0, 36)">
      <rect width="648" height="120" rx="18" fill="#161b22" stroke="#30363d" stroke-width="1.2"/>
      <text x="24" y="44" fill="#ffffff" font-size="20" font-weight="700" font-family="sans-serif">Primary JS Engine: Deno</text>
      <text x="24" y="72" fill="#8b949e" font-size="15" font-family="sans-serif">Deno 2.7.7 Native Rust / ARM64 • Fast extractor execution</text>
      <text x="24" y="96" fill="#3fb950" font-size="14" font-weight="600" font-family="sans-serif">● Active &amp; Verified (zero V8 overhead)</text>

      <!-- Toggle switch ON -->
      <rect x="548" y="42" width="68" height="36" rx="18" fill="#238636"/>
      <circle cx="594" cy="60" r="14" fill="#ffffff"/>
    </g>

    <!-- Card 2: Chaquopy yt-dlp -->
    <g transform="translate(0, 174)">
      <rect width="648" height="120" rx="18" fill="#161b22" stroke="#30363d" stroke-width="1.2"/>
      <text x="24" y="44" fill="#ffffff" font-size="20" font-weight="700" font-family="sans-serif">yt-dlp Core (Chaquopy)</text>
      <text x="24" y="72" fill="#8b949e" font-size="15" font-family="sans-serif">Python 3.11 Embedded Runtime • 1,000+ platform extractors</text>
      <text x="24" y="96" fill="#58a6ff" font-size="14" font-weight="600" font-family="sans-serif">Auto-update extractors via PyPI release</text>

      <rect x="532" y="42" width="84" height="36" rx="10" fill="#21262d" stroke="#30363d" stroke-width="1"/>
      <text x="574" y="65" fill="#e6edf3" font-size="14" font-weight="700" text-anchor="middle" font-family="sans-serif">CHECK</text>
    </g>

    <!-- CATEGORY 2: STORAGE & DOWNLOADS -->
    <text x="0" y="336" fill="#58a6ff" font-size="16" font-weight="800" letter-spacing="1" font-family="sans-serif">DOWNLOAD STORAGE &amp; PATHS</text>

    <!-- Card 3: Storage path -->
    <g transform="translate(0, 352)">
      <rect width="648" height="114" rx="18" fill="#161b22" stroke="#30363d" stroke-width="1.2"/>
      <text x="24" y="44" fill="#ffffff" font-size="20" font-weight="700" font-family="sans-serif">Storage Location</text>
      <text x="24" y="72" fill="#c9d1d9" font-size="15" font-family="monospace">/storage/emulated/0/Movies/TrueStream</text>
      <text x="24" y="96" fill="#8b949e" font-size="14" font-family="sans-serif">Scoped Storage • No root required • SAF access</text>

      <rect x="532" y="38" width="84" height="36" rx="10" fill="#21262d" stroke="#30363d" stroke-width="1"/>
      <text x="574" y="61" fill="#e6edf3" font-size="14" font-weight="700" text-anchor="middle" font-family="sans-serif">CHANGE</text>
    </g>

    <!-- Card 4: Concurrency -->
    <g transform="translate(0, 484)">
      <rect width="648" height="114" rx="18" fill="#161b22" stroke="#30363d" stroke-width="1.2"/>
      <text x="24" y="44" fill="#ffffff" font-size="20" font-weight="700" font-family="sans-serif">Concurrent Chunks (aria2c)</text>
      <text x="24" y="72" fill="#8b949e" font-size="15" font-family="sans-serif">Maximum parallel connections per download</text>
      <text x="24" y="96" fill="#3fb950" font-size="14" font-weight="600" font-family="sans-serif">8 threads (Optimal for 5G &amp; Wi-Fi 6)</text>

      <rect x="548" y="38" width="68" height="36" rx="10" fill="rgba(88, 166, 255, 0.15)"/>
      <text x="582" y="62" fill="#58a6ff" font-size="17" font-weight="800" text-anchor="middle" font-family="sans-serif">8</text>
    </g>

    <!-- CATEGORY 3: PRIVACY & TELEMETRY -->
    <text x="0" y="640" fill="#58a6ff" font-size="16" font-weight="800" letter-spacing="1" font-family="sans-serif">PRIVACY, ADS &amp; TRACKING</text>

    <!-- Card 5: Zero telemetry -->
    <g transform="translate(0, 656)">
      <rect width="648" height="114" rx="18" fill="#161b22" stroke="#30363d" stroke-width="1.2"/>
      <text x="24" y="44" fill="#ffffff" font-size="20" font-weight="700" font-family="sans-serif">Zero Telemetry Policy</text>
      <text x="24" y="72" fill="#8b949e" font-size="15" font-family="sans-serif">No analytics, no telemetry, no third-party network pings</text>
      <text x="24" y="96" fill="#3fb950" font-size="14" font-weight="700" font-family="sans-serif">✓ 100% LOCAL &amp; OPEN SOURCE (GPL-3.0)</text>

      <circle cx="582" cy="57" r="18" fill="rgba(63, 185, 80, 0.15)"/>
      <path d="M574 57 l6 6 12-12" fill="none" stroke="#3fb950" stroke-width="3" stroke-linecap="round"/>
    </g>

    <!-- Card 6: Bionic FFmpeg -->
    <g transform="translate(0, 788)">
      <rect width="648" height="114" rx="18" fill="#161b22" stroke="#30363d" stroke-width="1.2"/>
      <text x="24" y="44" fill="#ffffff" font-size="20" font-weight="700" font-family="sans-serif">FFmpeg Bionic Linker</text>
      <text x="24" y="72" fill="#8b949e" font-size="15" font-family="sans-serif">libavcodec, libavformat, libswresample, libopus</text>
      <text x="24" y="96" fill="#8b949e" font-size="14" font-family="sans-serif">W^X compliant lib*.so binaries in nativeLibraryDir</text>

      <rect x="532" y="38" width="84" height="36" rx="10" fill="#21262d"/>
      <text x="574" y="61" fill="#3fb950" font-size="14" font-weight="700" text-anchor="middle" font-family="sans-serif">LOADED</text>
    </g>
  </g>

  
    <!-- Bottom nav bar background -->
    <rect x="0" y="1410" width="720" height="110" fill="#161b22" opacity="0.98"/>
    <line x1="0" y1="1410" x2="720" y2="1410" stroke="#30363d" stroke-width="1.5"/>
    
      <g transform="translate(54, 1430)">
        <rect x="0" y="0" width="72" height="38" rx="19" fill="transparent"/>
        <path d="M12 3L2 12h3v8h6v-6h2v6h6v-8h3L12 3z" fill="#8b949e" transform="translate(24, 7) scale(1)"/>
        <text x="36" y="54" fill="#8b949e" font-size="16" font-weight="500" text-anchor="middle" font-family="-apple-system, BlinkMacSystemFont, 'Segoe UI', Roboto, sans-serif">Home</text>
      </g>
    
      <g transform="translate(234, 1430)">
        <rect x="0" y="0" width="72" height="38" rx="19" fill="transparent"/>
        <path d="M15.5 14h-.79l-.28-.27C15.41 12.59 16 11.11 16 9.5 16 5.91 13.09 3 9.5 3S3 5.91 3 9.5 5.91 16 9.5 16c1.61 0 3.09-.59 4.23-1.57l.27.28v.79l5 4.99L20.49 19l-4.99-5zm-6 0C7.01 14 5 11.99 5 9.5S7.01 5 9.5 5 14 7.01 14 9.5 11.99 14 9.5 14z" fill="#8b949e" transform="translate(24, 7) scale(1)"/>
        <text x="36" y="54" fill="#8b949e" font-size="16" font-weight="500" text-anchor="middle" font-family="-apple-system, BlinkMacSystemFont, 'Segoe UI', Roboto, sans-serif">Search</text>
      </g>
    
      <g transform="translate(414, 1430)">
        <rect x="0" y="0" width="72" height="38" rx="19" fill="transparent"/>
        <path d="M19 9h-4V3H9v6H5l7 7 7-7zM5 18v2h14v-2H5z" fill="#8b949e" transform="translate(24, 7) scale(1)"/>
        <text x="36" y="54" fill="#8b949e" font-size="16" font-weight="500" text-anchor="middle" font-family="-apple-system, BlinkMacSystemFont, 'Segoe UI', Roboto, sans-serif">Queue</text>
      </g>
    
      <g transform="translate(594, 1430)">
        <rect x="0" y="0" width="72" height="38" rx="19" fill="rgba(88, 166, 255, 0.12)"/>
        <path d="M19.14 12.94c.04-.3.06-.61.06-.94 0-.32-.02-.64-.07-.94l2.03-1.58c.18-.14.23-.41.12-.61l-1.92-3.32c-.12-.22-.37-.29-.59-.22l-2.39.96c-.5-.38-1.03-.7-1.62-.94l-.36-2.54c-.04-.24-.24-.41-.48-.41h-3.84c-.24 0-.43.17-.47.41l-.36 2.54c-.59.24-1.13.57-1.62.94l-2.39-.96c-.22-.08-.47 0-.59.22L2.74 8.87c-.12.21-.08.47.12.61l2.03 1.58c-.05.3-.09.63-.09.94s.02.64.07.94l-2.03 1.58c-.18.14-.23.41-.12.61l1.92 3.32c.12.22.37.29.59.22l2.39-.96c.5.38 1.03.7 1.62.94l.36 2.54c.05.24.24.41.48.41h3.84c.24 0 .44-.17.47-.41l.36-2.54c.59-.24 1.13-.56 1.62-.94l2.39.96c.22.08.47 0 .59-.22l1.92-3.32c.12-.22.07-.47-.12-.61l-2.01-1.58zM12 15.6c-1.98 0-3.6-1.62-3.6-3.6s1.62-3.6 3.6-3.6 3.6 1.62 3.6 3.6-1.62 3.6-3.6 3.6z" fill="#58a6ff" transform="translate(24, 7) scale(1)"/>
        <text x="36" y="54" fill="#58a6ff" font-size="16" font-weight="700" text-anchor="middle" font-family="-apple-system, BlinkMacSystemFont, 'Segoe UI', Roboto, sans-serif">Settings</text>
      </g>
    
  
</svg>